<svg width="86" height="86" viewBox="0 0 86 86" fill="none" xmlns="http://www.w3.org/2000/svg">
<g clip-path="url(#clip0_21_56)">
<mask id="mask0_21_56" style="mask-type:luminance" maskUnits="userSpaceOnUse" x="-471" y="-955" width="1226" height="1677">
<path d="M-470.902 -954.314H754.61V721.411H-470.902V-954.314Z" fill="white"/>
</mask>
<g mask="url(#mask0_21_56)">
<path d="M42.9949 85.9999C66.7462 85.9999 86 66.7175 86 43.0051C86 19.2489 66.7462 -6.86646e-05 42.9949 -6.86646e-05C19.2461 -6.86646e-05 0 19.2489 0 43.0051C0 66.7175 19.2461 85.9999 42.9949 85.9999Z" fill="#C4084F"/>
<path d="M41.2623 24.1088V61.8474H53.2384V58.4573H44.7249V24.1088H41.2623Z" fill="white"/>
<path d="M29.2554 34.4258C32.0949 34.4258 34.4325 32.1193 34.4325 29.2724C34.4325 26.41 32.0949 24.0985 29.2554 24.0985C26.4158 24.0985 24.0938 26.41 24.0938 29.2724C24.0938 32.1193 26.4158 34.4258 29.2554 34.4258Z" fill="white"/>
<path d="M44.7248 7.03748C44.2537 7.02461 43.4376 7.0246 42.9949 7.0246C23.1437 7.0246 6.99463 23.1384 6.99463 42.9974C6.99463 52.6013 10.7481 61.6491 17.5264 68.437C24.3383 75.2403 33.3563 79.0216 42.9949 79.0216C52.6128 79.0216 61.6437 75.2403 68.4504 68.437C75.2288 61.6491 78.9616 52.6013 78.9616 42.9974V41.3525H53.2718V44.6937H75.5531C75.5531 44.7606 75.5377 45.1287 75.5377 45.2034C74.441 62.1948 60.2252 75.6058 42.9949 75.6058C34.2934 75.6058 26.0657 72.2286 19.9155 66.0843C13.7575 59.9271 10.3464 51.7132 10.3464 42.9948C10.3464 34.2841 13.7575 26.0857 19.9155 19.9311C26.0657 13.761 34.2934 10.3632 42.9949 10.3632C43.381 10.3632 44.2975 10.3838 44.7248 10.3915V7.03748Z" fill="white"/>
</g>
</g>
<defs>
<clipPath id="clip0_21_56">
<rect width="86" height="86" fill="white"/>
</clipPath>
</defs>
</svg>
